<svg version="1" xmlns="http://www.w3.org/2000/svg" width="682.667" height="682.667" viewBox="0 0 512 512" fill="#FFFFFF"><path d="M230 2.1c-36.3 4.1-69.9 16.4-100 36.7-16 10.9-18.3 12.7-17.8 14.6.3 1.3 28.1 30.3 33.5 34.9 2.1 1.8 2.2 1.8 7.5-2 13.7-10 32.1-19.4 48.3-24.7 26.6-8.7 57.1-10.7 84.9-5.6 11.4 2.1 13.6 2.7 24.6 6.7 3.6 1.2 6.9 2.3 7.3 2.3 2.4 0 23.1 11.1 32.7 17.5 11 7.4 11.3 7.5 13.4 5.8 5.5-4.8 33.6-34 33.6-35.1 0-.7-.8-1.9-1.7-2.6-1-.8-3.2-2.6-4.8-3.9C388.3 44.1 375 35 374.4 35c-.2 0-2.7-1.5-5.6-3.4-6.2-3.9-26-13.6-33.8-16.5-26.4-9.8-51.5-14.2-79.5-14-9.9.1-21.4.5-25.5 1zM78.7 85.4c-1.4 1.4-4.1 4.7-5.9 7.3-1.7 2.7-3.6 5.2-4 5.8-2.1 2.6-5.8 8.7-5.8 9.5 0 .6-.4 1-.9 1-.9 0-15.1 27.3-15.1 29.1 0 .5-.9 2.8-1.9 5-1.1 2.2-2.3 5.4-2.6 7.2-.4 1.8-1.1 3.6-1.5 4.2-1.5 2.1-5.7 17.7-8.1 30-3.7 19.2-4.8 50.1-2.5 67.5 3.3 24.2 5 33.4 6.8 35.4.4.6.8 2.2.8 3.7s.4 3.1 1 3.4c.5.3 1 1.7 1 3s.4 2.7 1 3c.5.3 1 1.4 1 2.3 0 .9.7 3 1.5 4.6.8 1.5 1.5 3.4 1.5 4.1 0 .7 2 5.3 4.5 10.4 2.5 5 4.5 9.3 4.5 9.6 0 1.7 18.6 30.6 22.8 35.4 3.3 3.7 4.1 4.2 5.8 3.3 1-.6 9.4-8.7 18.7-18 13.2-13.4 16.6-17.4 16-18.8-.3-1.1-2.6-4.6-4.9-8-5.1-7.2-18.4-32.7-18.4-35.3 0-1-.3-2.1-.7-2.5-1-1-2.7-6.4-6.7-20.7-2.8-10.4-4.8-30.1-4.3-43.6.4-14 2.3-30.7 3.7-33.8.4-1.1 1.1-3.4 1.4-5 1.1-5.3 7-23 7.8-23.3.4-.2.8-.8.8-1.3 0-1.9 11.1-23.7 14.5-28.4 6.1-8.4 7.5-10.6 7.5-11.8 0-1.2-34-35.9-35.9-36.5-.5-.2-2.1.8-3.4 2.2zM409.2 101.3c-16.4 16.5-19.2 20.3-16.3 22.1 1.3.9 11.1 15.3 11.1 16.5 0 .5.4 1.1.8 1.3.8.3 5 8.7 8.9 17.8.8 1.9 1.9 4.4 2.4 5.5.5 1.1 1.6 4.2 2.4 7 .9 2.7 2 5.9 2.5 7 .5 1.1 1.1 3.3 1.4 5 .3 1.6 1.2 6.6 2.1 11 2.4 12.2 3.6 27.8 3 40-.6 12.1-3.1 30-4.6 32.7-.5 1-.9 2.7-.9 3.9 0 3.3-6.6 21-12.2 32.6-2.7 5.6-7.8 14.6-11.4 19.9-3.6 5.4-6.4 10.3-6.2 11.1.5 2.2 35 36.3 36.8 36.3 1.4 0 5.8-5.1 9.5-10.9.6-.9 1.2-1.8 1.5-2.1 3.5-3.4 16.8-27.5 23.9-43.2 4.1-9.3 10.3-29.3 12.2-39.8.5-3 1.4-7.5 2-10 3.3-15.5 3.5-55.6.4-73-2.6-15-3.3-17.8-9.1-38-.4-1.4-1-3-1.4-3.5-.4-.6-1-2.4-1.4-4-.7-2.8-8.2-19.4-10.8-24-.7-1.1-1.8-3.4-2.6-5-.9-1.7-2.8-4.9-4.4-7.2-1.5-2.3-2.8-4.4-2.8-4.7 0-.6-11.6-17.4-13.8-19.9-3.2-3.6-5.3-2.1-23 15.6z"/><path d="M224.5 87.6c-2.7.8-6.8 1.9-9 2.5-2.2.6-4.9 1.5-6 1.9-1.1.5-4.2 1.7-7 2.6-6.5 2.4-18.6 8.6-22.1 11.3-1.4 1.1-3.1 2.1-3.7 2.1-.5 0-2.4 1.2-4.2 2.7-10.8 9.1-13.3 11.3-18.9 16.8-3.5 3.3-7.8 8-9.7 10.5-1.8 2.5-3.7 4.6-4.1 4.8-.5.2-.8 1-.8 1.7s-.4 1.5-.8 1.7c-3.2 1.2-18.1 32.7-20.3 42.8-4.3 19.2-4.4 20.7-2.3 21.7 1.1.4 9.8.6 19.4.3l17.4-.5.9-3.5c1.8-7.5 3.1-11.5 3.9-12.5.4-.5.8-1.7.8-2.7 0-1 .4-2.6.9-3.6.5-.9 2.2-4.2 3.7-7.2 1.4-3 4.3-7.9 6.3-10.9s4.1-6.4 4.8-7.5c1.6-2.9 16.6-17.1 20.3-19.3 1.7-.9 3-2.1 3-2.5 0-.4.7-.8 1.5-.8s1.5-.5 1.5-1c0-.6.8-1 1.8-1 .9 0 4.2-1.6 7.2-3.5s6.1-3.5 7-3.5c.9 0 2-.4 2.5-.9.6-.4 4.1-1.6 7.8-2.6s7-2.2 7.3-2.6c.8-1.3.8-36.5 0-37.7-.9-1.5-2.7-1.4-9.1.4zM276.4 87.4c-.2.6-.3 9.4-.2 19.6l.3 18.4 6 1.7c3.3 1 6.8 2.3 7.7 2.8 1 .6 2.3 1.1 2.9 1.1 1.9 0 15 6.9 20.3 10.7 10.8 7.7 24.2 21.2 27.6 27.8.9 1.6 2.7 4.8 4.1 7 1.4 2.2 3.2 5.8 4.1 8 5 12.4 6 15.4 6.5 19.7.3 2.7 1.1 5.2 1.8 5.8.8.7 8.1.9 19.6.8l18.4-.3-.3-4.5c-.1-2.5-.7-6.2-1.2-8.3-.6-2-1.4-5.4-2-7.5-2.7-10.4-4.6-16-6.2-18.4-1-1.4-1.8-3.2-1.8-3.8 0-2.5-13.3-25-15.2-25.8-.5-.2-.8-.8-.8-1.3 0-1.3-.8-2.1-11-12.8-4.7-4.9-10.3-10.1-12.5-11.7-2.2-1.6-5.1-3.9-6.4-5.1-1.3-1.1-3.5-2.7-5-3.5-1.4-.7-2.8-1.5-3.1-1.8-2.3-2.6-25.5-13.2-33-15.2-16.1-4.2-20-4.8-20.6-3.4z"/><path d="M198.9 178.2c-.1 10.1-.1 19 .1 19.8.2 1.9 32.1 34 33.7 34 1 0 1.3-4.3 1.3-18.6v-18.6l19.8.4c19.1.3 19.9.4 25.3 3.1 6.8 3.3 12.2 8.6 15.7 15.2 2.3 4.3 2.6 6.2 2.6 14 0 10.6-2.2 16.4-8.8 22.8-8.1 7.9-15.1 9.7-37.3 9.7H234v-13.5l-17-17c-9.3-9.3-17.2-16.7-17.5-16.3-.4.4-.8 58.1-.5 80.9 0 .7 12.1.9 40.3.7 43.6-.4 44.3-.5 56.2-6.6 13.3-6.7 26.5-20.2 31.9-32.5 4.6-10.3 5.9-16.7 5.9-28.2 0-12.2-1.5-19-6.2-29.2-4.9-10.4-16-22.9-25.1-28.2-16.6-9.6-18.6-10-64.7-10L199 160l-.1 18.2zM116.7 252.6c-2.1 2.1 1.7 17.6 7.2 29.9 4.9 10.7 8.4 18 9 18.5.3.3 2.8 3.7 5.4 7.7 4.8 7.2 17.9 22.1 22.7 25.8 1.4 1.1 3 2.4 3.6 3 .6.5 2.3 1.9 3.8 3 1.6 1.1 4.4 3.2 6.3 4.7 2 1.6 5.6 3.8 8.2 5 2.5 1.2 5.8 3 7.2 4 8 5.3 41.4 15.6 43.7 13.4 1-1 1.5-26.7.7-33.4-.4-2.9-1.2-5.5-1.8-5.6-7.3-2-19.7-6.3-21.7-7.6-1.4-.9-4.4-2.4-6.7-3.5-2.4-1-4.3-2.2-4.3-2.7 0-.4-.6-.8-1.4-.8-.8 0-1.6-.7-2-1.5-.3-.8-1-1.5-1.6-1.5-2.7 0-23-20.2-23-22.9 0-.5-.4-1.1-.8-1.3-.9-.3-8.2-11.4-8.2-12.4 0-.3-1-2.7-2.3-5.3-1.3-2.5-2.9-6.6-3.6-9.1-2.3-8-.8-7.5-21.3-7.8-10.1-.1-18.7.1-19.1.4zM355.1 255.2c-.4 1.3-1.8 5.2-3 8.8-2.4 7-9.5 20-14.4 26.5-4.6 6-17.5 18.3-23.7 22.5-7.9 5.4-20.3 11.3-29.1 14l-7.6 2.3-.7 13.1c-.3 7.2-.2 15.8.2 19.1.8 6.9-.3 6.6 13.2 3.3 7.8-1.9 18-5.5 22.2-7.8 1-.6 2.2-1 2.8-1 1.4 0 20.4-11.5 26-15.7 10.1-7.7 22.6-21.1 31.4-33.6 8.5-12 19.1-37.6 20.9-50l.6-3.7h-19c-18.7 0-19 0-19.8 2.2z"/><path d="M136 374.2c-23.3 23.5-25.2 25.6-24.6 27.5.3 1.1 3.4 3.9 6.9 6.3 3.4 2.4 6.4 4.7 6.5 5.2.2.4.9.8 1.6.8.7 0 2.3 1.1 3.6 2.5 1.3 1.4 2.8 2.5 3.3 2.5s2.1.8 3.5 1.9c1.5 1 7.3 4.2 13 7.1 5.6 2.9 10.5 5.7 10.8 6.1.5.8 1 26.6 1.3 62.1l.1 15.8h4c3.6 0 4.6-.6 10.3-6.4 8.9-9.2 21.7-22.6 33.2-35.1 5.5-5.9 11.4-12.2 13.2-13.9l3.2-3.1h27.3c17.4 0 29.1-.4 32.3-1.2 2.8-.6 9.3-1.9 14.5-2.8 5.2-.9 10.6-2.1 12-2.5 1.4-.5 6.6-2.1 11.5-3.6 14.7-4.4 34.2-13.3 48-21.7 6-3.7 15.2-9.8 16.5-10.9.8-.7 3.1-2.4 5-3.7 4-2.7 6-5 6-6.6 0-1.4-34.5-36.5-35.9-36.5-.5 0-4.4 2.3-8.5 5-10.9 7.2-14.9 9.5-25.6 14.6-12.9 6.2-16.8 7.7-29.5 11.4-9.7 2.9-32.3 5.9-44.5 5.9-18.4.1-46-4.8-58.7-10.5-1.7-.8-3.4-1.4-3.8-1.4-1.4 0-15.6-6.8-23-11-4.5-2.5-14.7-9.1-15.5-10-1-1.1-6-4-6.8-4-.6 0-5.6 4.6-11.2 10.2z"/></svg>